<?xml version="1.0" encoding="us-ascii" standalone="no"?><svg xmlns="http://www.w3.org/2000/svg" xmlns:xlink="http://www.w3.org/1999/xlink" contentStyleType="text/css" height="267px" preserveAspectRatio="none" style="width:295px;height:267px;background:#FFFFFF;" version="1.1" viewBox="0 0 295 267" width="295px" zoomAndPan="magnify"><defs/><g><!--class Personne--><g id="elem_Personne"><rect codeLine="1" fill="#F1F1F1" height="80.5938" id="Personne" rx="2.5" ry="2.5" style="stroke:#181818;stroke-width:0.5;" width="181" x="57" y="180"/><ellipse cx="109.75" cy="196" fill="#ADD1B2" rx="11" ry="11" style="stroke:#181818;stroke-width:1.0;"/><path d="M112.0938,191.6719 C111.1563,191.2344 110.5625,191.0938 109.6875,191.0938 C107.0625,191.0938 105.0625,193.1719 105.0625,195.8906 L105.0625,197.0156 C105.0625,199.5938 107.1719,201.4844 110.0625,201.4844 C111.2813,201.4844 112.4375,201.1875 113.1875,200.6406 C113.7656,200.2344 114.0938,199.7813 114.0938,199.3906 C114.0938,198.9375 113.7031,198.5469 113.2344,198.5469 C113.0156,198.5469 112.8125,198.625 112.625,198.8125 C112.1719,199.2969 112.1719,199.2969 111.9844,199.3906 C111.5625,199.6563 110.875,199.7813 110.1094,199.7813 C108.0625,199.7813 106.7656,198.6875 106.7656,196.9844 L106.7656,195.8906 C106.7656,194.1094 108.0156,192.7969 109.75,192.7969 C110.3281,192.7969 110.9375,192.9531 111.4063,193.2031 C111.8906,193.4844 112.0625,193.7031 112.1563,194.1094 C112.2188,194.5156 112.25,194.6406 112.3906,194.7656 C112.5313,194.9063 112.7656,195.0156 112.9844,195.0156 C113.25,195.0156 113.5156,194.875 113.6875,194.6563 C113.7969,194.5 113.8281,194.3125 113.8281,193.8906 L113.8281,192.4688 C113.8281,192.0313 113.8125,191.9063 113.7188,191.75 C113.5625,191.4844 113.2813,191.3438 112.9844,191.3438 C112.6875,191.3438 112.4844,191.4375 112.2656,191.75 L112.0938,191.6719 Z " fill="#000000"/><text fill="#000000" font-family="sans-serif" font-size="14" lengthAdjust="spacing" textLength="67" x="130.25" y="200.8467">Personne</text><line style="stroke:#181818;stroke-width:0.5;" x1="58" x2="237" y1="212" y2="212"/><rect fill="none" height="6" style="stroke:#C82930;stroke-width:1.0;" width="6" x="65" y="222.6484"/><text fill="#000000" font-family="sans-serif" font-size="14" lengthAdjust="spacing" textLength="99" x="77" y="228.9951">string m_nom</text><line style="stroke:#181818;stroke-width:0.5;" x1="58" x2="237" y1="236.2969" y2="236.2969"/><ellipse cx="68" cy="249.9453" fill="#84BE84" rx="3" ry="3" style="stroke:#038048;stroke-width:1.0;"/><text fill="#000000" font-family="sans-serif" font-size="14" lengthAdjust="spacing" textLength="155" x="77" y="253.292">Personne(string nom)</text></g><!--class Equipe--><g id="elem_Equipe"><rect codeLine="6" fill="#F1F1F1" height="113.1875" id="Equipe" rx="2.5" ry="2.5" style="stroke:#181818;stroke-width:0.5;" width="281" x="7" y="7"/><ellipse cx="118.75" cy="23" fill="#ADD1B2" rx="11" ry="11" style="stroke:#181818;stroke-width:1.0;"/><path d="M121.0938,18.6719 C120.1563,18.2344 119.5625,18.0938 118.6875,18.0938 C116.0625,18.0938 114.0625,20.1719 114.0625,22.8906 L114.0625,24.0156 C114.0625,26.5938 116.1719,28.4844 119.0625,28.4844 C120.2813,28.4844 121.4375,28.1875 122.1875,27.6406 C122.7656,27.2344 123.0938,26.7813 123.0938,26.3906 C123.0938,25.9375 122.7031,25.5469 122.2344,25.5469 C122.0156,25.5469 121.8125,25.625 121.625,25.8125 C121.1719,26.2969 121.1719,26.2969 120.9844,26.3906 C120.5625,26.6563 119.875,26.7813 119.1094,26.7813 C117.0625,26.7813 115.7656,25.6875 115.7656,23.9844 L115.7656,22.8906 C115.7656,21.1094 117.0156,19.7969 118.75,19.7969 C119.3281,19.7969 119.9375,19.9531 120.4063,20.2031 C120.8906,20.4844 121.0625,20.7031 121.1563,21.1094 C121.2188,21.5156 121.25,21.6406 121.3906,21.7656 C121.5313,21.9063 121.7656,22.0156 121.9844,22.0156 C122.25,22.0156 122.5156,21.875 122.6875,21.6563 C122.7969,21.5 122.8281,21.3125 122.8281,20.8906 L122.8281,19.4688 C122.8281,19.0313 122.8125,18.9063 122.7188,18.75 C122.5625,18.4844 122.2813,18.3438 121.9844,18.3438 C121.6875,18.3438 121.4844,18.4375 121.2656,18.75 L121.0938,18.6719 Z " fill="#000000"/><text fill="#000000" font-family="sans-serif" font-size="14" lengthAdjust="spacing" textLength="49" x="139.25" y="27.8467">Equipe</text><line style="stroke:#181818;stroke-width:0.5;" x1="8" x2="287" y1="39" y2="39"/><rect fill="none" height="6" style="stroke:#C82930;stroke-width:1.0;" width="6" x="15" y="49.6484"/><text fill="#000000" font-family="sans-serif" font-size="14" lengthAdjust="spacing" textLength="99" x="27" y="55.9951">string m_nom</text><rect fill="none" height="6" style="stroke:#C82930;stroke-width:1.0;" width="6" x="15" y="65.9453"/><text fill="#000000" font-family="sans-serif" font-size="14" lengthAdjust="spacing" textLength="230" x="27" y="72.292">vector&lt;Personne&gt; m_membres</text><line style="stroke:#181818;stroke-width:0.5;" x1="8" x2="287" y1="79.5938" y2="79.5938"/><ellipse cx="18" cy="93.2422" fill="#84BE84" rx="3" ry="3" style="stroke:#038048;stroke-width:1.0;"/><text fill="#000000" font-family="sans-serif" font-size="14" lengthAdjust="spacing" textLength="137" x="27" y="96.5889">Equipe(string nom)</text><ellipse cx="18" cy="109.5391" fill="#84BE84" rx="3" ry="3" style="stroke:#038048;stroke-width:1.0;"/><text fill="#000000" font-family="sans-serif" font-size="14" lengthAdjust="spacing" textLength="255" x="27" y="112.8857">ajout_membre(Personne* membre)</text></g><!--reverse link Equipe to Personne--><g id="link_Equipe_Personne"><path codeLine="14" d="M147.5,133.257 C147.5,149.228 147.5,165.6995 147.5,179.9137 " fill="none" id="Equipe-backto-Personne" style="stroke:#181818;stroke-width:1.0;"/><polygon fill="none" points="147.5,120.021,143.5,126.021,147.5,132.021,151.5,126.021,147.5,120.021" style="stroke:#181818;stroke-width:1.0;"/></g><!--SRC=[Iyv9B2vM24WjAixFoqjLgEPIq5KeBYdAp4jNo8tFoy_bKj26osf09O32cborN5p9OBskXQMP1QbODEegbAKcb-GNsS3qsm5bSbDpaufIYxb0va9qefWA54tCoYyjWQhJW6dLKe08WEs5krQtj40t7seC0000]--></g></svg>
