<?xml version="1.0" encoding = "us-ascii" standalone = "no" ?> <svg xmlns="http://www.w3.org/2000/svg" xmlns: xlink = "http://www.w3.org/1999/xlink" contentStyleType = "text/css" height = "251px" preserveAspectRatio = "none" style = "width:343px;height:251px;background:#FFFFFF;" version = "1.1" viewBox = "0 0 343 251" width = "343px" zoomAndPan = "magnify" > <defs/><g><!--class Moteur--><g id="elem_Moteur"><rect codeLine="1" fill="#F1F1F1" height="80.5938" id="Moteur" rx="2.5" ry="2.5" style="stroke:#181818;stroke-width:0.5;" width="178" x="82.5" y="164"/ > <ellipse cx="141.75" cy = "180" fill = "#ADD1B2" rx = "11" ry = "11" style = "stroke:#181818;stroke-width:1.0;" /> <path d="M144.0938,175.6719 C143.1563,175.2344 142.5625,175.0938 141.6875,175.0938 C139.0625,175.0938 137.0625,177.1719 137.0625,179.8906 L137.0625,181.0156 C137.0625,183.5938 139.1719,185.4844 142.0625,185.4844 C143.2813,185.4844 144.4375,185.1875 145.1875,184.6406 C145.7656,184.2344 146.0938,183.7813 146.0938,183.3906 C146.0938,182.9375 145.7031,182.5469 145.2344,182.5469 C145.0156,182.5469 144.8125,182.625 144.625,182.8125 C144.1719,183.2969 144.1719,183.2969 143.9844,183.3906 C143.5625,183.6563 142.875,183.7813 142.1094,183.7813 C140.0625,183.7813 138.7656,182.6875 138.7656,180.9844 L138.7656,179.8906 C138.7656,178.1094 140.0156,176.7969 141.75,176.7969 C142.3281,176.7969 142.9375,176.9531 143.4063,177.2031 C143.8906,177.4844 144.0625,177.7031 144.1563,178.1094 C144.2188,178.5156 144.25,178.6406 144.3906,178.7656 C144.5313,178.9063 144.7656,179.0156 144.9844,179.0156 C145.25,179.0156 145.5156,178.875 145.6875,178.6563 C145.7969,178.5 145.8281,178.3125 145.8281,177.8906 L145.8281,176.4688 C145.8281,176.0313 145.8125,175.9063 145.7188,175.75 C145.5625,175.4844 145.2813,175.3438 144.9844,175.3438 C144.6875,175.3438 144.4844,175.4375 144.2656,175.75 L144.0938,175.6719 Z " fill = "#000000" /> <text fill="#000000" font - family="sans-serif" font - size="14" lengthAdjust = "spacing" textLength = "51" x = "162.25" y = "184.8467" > Moteur < /text><line style="stroke:#181818;stroke-width:0.5;" x1="83.5" x2="259.5" y1="196" y2="196"/ > <rect fill="none" height = "6" style = "stroke:#C82930;stroke-width:1.0;" width = "6" x = "90.5" y = "206.6484" /> <text fill="#000000" font - family="sans-serif" font - size="14" lengthAdjust = "spacing" textLength = "91" x = "102.5" y = "212.9951" > string model < /text><line style="stroke:#181818;stroke-width:0.5;" x1="83.5" x2="259.5" y1="220.2969" y2="220.2969"/ > <ellipse cx="93.5" cy = "233.9453" fill = "#84BE84" rx = "3" ry = "3" style = "stroke:#038048;stroke-width:1.0;" /> <text fill="#000000" font - family="sans-serif" font - size="14" lengthAdjust = "spacing" textLength = "152" x = "102.5" y = "237.292" > Moteur(string model) < /text></g > <!--class Auto--> <g id="elem_Auto" > <rect codeLine="6" fill = "#F1F1F1" height = "96.8906" id = "Auto" rx = "2.5" ry = "2.5" style = "stroke:#181818;stroke-width:0.5;" width = "329" x = "7" y = "7" /> <ellipse cx="150.25" cy = "23" fill = "#ADD1B2" rx = "11" ry = "11" style = "stroke:#181818;stroke-width:1.0;" /> <path d="M152.5938,18.6719 C151.6563,18.2344 151.0625,18.0938 150.1875,18.0938 C147.5625,18.0938 145.5625,20.1719 145.5625,22.8906 L145.5625,24.0156 C145.5625,26.5938 147.6719,28.4844 150.5625,28.4844 C151.7813,28.4844 152.9375,28.1875 153.6875,27.6406 C154.2656,27.2344 154.5938,26.7813 154.5938,26.3906 C154.5938,25.9375 154.2031,25.5469 153.7344,25.5469 C153.5156,25.5469 153.3125,25.625 153.125,25.8125 C152.6719,26.2969 152.6719,26.2969 152.4844,26.3906 C152.0625,26.6563 151.375,26.7813 150.6094,26.7813 C148.5625,26.7813 147.2656,25.6875 147.2656,23.9844 L147.2656,22.8906 C147.2656,21.1094 148.5156,19.7969 150.25,19.7969 C150.8281,19.7969 151.4375,19.9531 151.9063,20.2031 C152.3906,20.4844 152.5625,20.7031 152.6563,21.1094 C152.7188,21.5156 152.75,21.6406 152.8906,21.7656 C153.0313,21.9063 153.2656,22.0156 153.4844,22.0156 C153.75,22.0156 154.0156,21.875 154.1875,21.6563 C154.2969,21.5 154.3281,21.3125 154.3281,20.8906 L154.3281,19.4688 C154.3281,19.0313 154.3125,18.9063 154.2188,18.75 C154.0625,18.4844 153.7813,18.3438 153.4844,18.3438 C153.1875,18.3438 152.9844,18.4375 152.7656,18.75 L152.5938,18.6719 Z " fill = "#000000" /> <text fill="#000000" font - family="sans-serif" font - size="14" lengthAdjust = "spacing" textLength = "34" x = "170.75" y = "27.8467" > Auto < /text><line style="stroke:#181818;stroke-width:0.5;" x1="8" x2="335" y1="39" y2="39"/ > <rect fill="none" height = "6" style = "stroke:#C82930;stroke-width:1.0;" width = "6" x = "15" y = "49.6484" /> <text fill="#000000" font - family="sans-serif" font - size="14" lengthAdjust = "spacing" textLength = "100" x = "27" y = "55.9951" > string marque < /text><rect fill="none" height="6" style="stroke:#C82930;stroke-width:1.0;" width="6" x="15" y="65.9453"/ > <text fill="#000000" font - family="sans-serif" font - size="14" lengthAdjust = "spacing" textLength = "115" x = "27" y = "72.292" > Moteur * moteur < /text><line style="stroke:#181818;stroke-width:0.5;" x1="8" x2="335" y1="79.5938" y2="79.5938"/ > <ellipse cx="18" cy = "93.2422" fill = "#84BE84" rx = "3" ry = "3" style = "stroke:#038048;stroke-width:1.0;" /> <text fill="#000000" font - family="sans-serif" font - size="14" lengthAdjust = "spacing" textLength = "303" x = "27" y = "96.5889" > Auto(string marque, string model_moteur) < /text></g > <!--reverse link Auto to Moteur-- > <g id="link_Auto_Moteur" > <path codeLine="13" d = "M171.5,117.676 C171.5,133.288 171.5,149.6632 171.5,163.8755 " fill = "none" id = "Auto-backto-Moteur" style = "stroke:#181818;stroke-width:1.0;" /> <polygon fill="#181818" points = "171.5,104.227,167.5,110.227,171.5,116.227,175.5,110.227,171.5,104.227" style = "stroke:#181818;stroke-width:1.0;" /> </g><!--SRC=[Iyv9B2vMyCqlIIqjgkPIq5KeBYdAp4jNoCrFIStXKj26IcaW2sjorN9n9OCrEfQMvADeIomgB4q52K3qQG5rW6Wka54WnHee2dLGh8k7g0KR3z6ke5jQeAi5rWW0]--></g > </svg>
