<?xml version="1.0" encoding="us-ascii" standalone="no"?><svg xmlns="http://www.w3.org/2000/svg" xmlns:xlink="http://www.w3.org/1999/xlink" contentStyleType="text/css" height="251px" preserveAspectRatio="none" style="width:399px;height:251px;background:#FFFFFF;" version="1.1" viewBox="0 0 399 251" width="399px" zoomAndPan="magnify"><defs/><g><!--class Roue--><g id="elem_Roue"><rect codeLine="1" fill="#F1F1F1" height="80.5938" id="Roue" rx="2.5" ry="2.5" style="stroke:#181818;stroke-width:0.5;" width="172" x="7" y="164"/><ellipse cx="70.75" cy="180" fill="#ADD1B2" rx="11" ry="11" style="stroke:#181818;stroke-width:1.0;"/><path d="M73.0938,175.6719 C72.1563,175.2344 71.5625,175.0938 70.6875,175.0938 C68.0625,175.0938 66.0625,177.1719 66.0625,179.8906 L66.0625,181.0156 C66.0625,183.5938 68.1719,185.4844 71.0625,185.4844 C72.2813,185.4844 73.4375,185.1875 74.1875,184.6406 C74.7656,184.2344 75.0938,183.7813 75.0938,183.3906 C75.0938,182.9375 74.7031,182.5469 74.2344,182.5469 C74.0156,182.5469 73.8125,182.625 73.625,182.8125 C73.1719,183.2969 73.1719,183.2969 72.9844,183.3906 C72.5625,183.6563 71.875,183.7813 71.1094,183.7813 C69.0625,183.7813 67.7656,182.6875 67.7656,180.9844 L67.7656,179.8906 C67.7656,178.1094 69.0156,176.7969 70.75,176.7969 C71.3281,176.7969 71.9375,176.9531 72.4063,177.2031 C72.8906,177.4844 73.0625,177.7031 73.1563,178.1094 C73.2188,178.5156 73.25,178.6406 73.3906,178.7656 C73.5313,178.9063 73.7656,179.0156 73.9844,179.0156 C74.25,179.0156 74.5156,178.875 74.6875,178.6563 C74.7969,178.5 74.8281,178.3125 74.8281,177.8906 L74.8281,176.4688 C74.8281,176.0313 74.8125,175.9063 74.7188,175.75 C74.5625,175.4844 74.2813,175.3438 73.9844,175.3438 C73.6875,175.3438 73.4844,175.4375 73.2656,175.75 L73.0938,175.6719 Z " fill="#000000"/><text fill="#000000" font-family="sans-serif" font-size="14" lengthAdjust="spacing" textLength="36" x="91.25" y="184.8467">Roue</text><line style="stroke:#181818;stroke-width:0.5;" x1="8" x2="178" y1="196" y2="196"/><rect fill="none" height="6" style="stroke:#C82930;stroke-width:1.0;" width="6" x="15" y="206.6484"/><text fill="#000000" font-family="sans-serif" font-size="14" lengthAdjust="spacing" textLength="100" x="27" y="212.9951">string marque</text><line style="stroke:#181818;stroke-width:0.5;" x1="8" x2="178" y1="220.2969" y2="220.2969"/><ellipse cx="18" cy="233.9453" fill="#84BE84" rx="3" ry="3" style="stroke:#038048;stroke-width:1.0;"/><text fill="#000000" font-family="sans-serif" font-size="14" lengthAdjust="spacing" textLength="146" x="27" y="237.292">Roue(string marque)</text></g><!--class Moteur--><g id="elem_Moteur"><rect codeLine="6" fill="#F1F1F1" height="80.5938" id="Moteur" rx="2.5" ry="2.5" style="stroke:#181818;stroke-width:0.5;" width="178" x="214" y="164"/><ellipse cx="273.25" cy="180" fill="#ADD1B2" rx="11" ry="11" style="stroke:#181818;stroke-width:1.0;"/><path d="M275.5938,175.6719 C274.6563,175.2344 274.0625,175.0938 273.1875,175.0938 C270.5625,175.0938 268.5625,177.1719 268.5625,179.8906 L268.5625,181.0156 C268.5625,183.5938 270.6719,185.4844 273.5625,185.4844 C274.7813,185.4844 275.9375,185.1875 276.6875,184.6406 C277.2656,184.2344 277.5938,183.7813 277.5938,183.3906 C277.5938,182.9375 277.2031,182.5469 276.7344,182.5469 C276.5156,182.5469 276.3125,182.625 276.125,182.8125 C275.6719,183.2969 275.6719,183.2969 275.4844,183.3906 C275.0625,183.6563 274.375,183.7813 273.6094,183.7813 C271.5625,183.7813 270.2656,182.6875 270.2656,180.9844 L270.2656,179.8906 C270.2656,178.1094 271.5156,176.7969 273.25,176.7969 C273.8281,176.7969 274.4375,176.9531 274.9063,177.2031 C275.3906,177.4844 275.5625,177.7031 275.6563,178.1094 C275.7188,178.5156 275.75,178.6406 275.8906,178.7656 C276.0313,178.9063 276.2656,179.0156 276.4844,179.0156 C276.75,179.0156 277.0156,178.875 277.1875,178.6563 C277.2969,178.5 277.3281,178.3125 277.3281,177.8906 L277.3281,176.4688 C277.3281,176.0313 277.3125,175.9063 277.2188,175.75 C277.0625,175.4844 276.7813,175.3438 276.4844,175.3438 C276.1875,175.3438 275.9844,175.4375 275.7656,175.75 L275.5938,175.6719 Z " fill="#000000"/><text fill="#000000" font-family="sans-serif" font-size="14" lengthAdjust="spacing" textLength="51" x="293.75" y="184.8467">Moteur</text><line style="stroke:#181818;stroke-width:0.5;" x1="215" x2="391" y1="196" y2="196"/><rect fill="none" height="6" style="stroke:#C82930;stroke-width:1.0;" width="6" x="222" y="206.6484"/><text fill="#000000" font-family="sans-serif" font-size="14" lengthAdjust="spacing" textLength="91" x="234" y="212.9951">string model</text><line style="stroke:#181818;stroke-width:0.5;" x1="215" x2="391" y1="220.2969" y2="220.2969"/><ellipse cx="225" cy="233.9453" fill="#84BE84" rx="3" ry="3" style="stroke:#038048;stroke-width:1.0;"/><text fill="#000000" font-family="sans-serif" font-size="14" lengthAdjust="spacing" textLength="152" x="234" y="237.292">Moteur(string model)</text></g><!--class Auto--><g id="elem_Auto"><rect codeLine="11" fill="#F1F1F1" height="96.8906" id="Auto" rx="2.5" ry="2.5" style="stroke:#181818;stroke-width:0.5;" width="293" x="51.5" y="7"/><ellipse cx="176.75" cy="23" fill="#ADD1B2" rx="11" ry="11" style="stroke:#181818;stroke-width:1.0;"/><path d="M179.0938,18.6719 C178.1563,18.2344 177.5625,18.0938 176.6875,18.0938 C174.0625,18.0938 172.0625,20.1719 172.0625,22.8906 L172.0625,24.0156 C172.0625,26.5938 174.1719,28.4844 177.0625,28.4844 C178.2813,28.4844 179.4375,28.1875 180.1875,27.6406 C180.7656,27.2344 181.0938,26.7813 181.0938,26.3906 C181.0938,25.9375 180.7031,25.5469 180.2344,25.5469 C180.0156,25.5469 179.8125,25.625 179.625,25.8125 C179.1719,26.2969 179.1719,26.2969 178.9844,26.3906 C178.5625,26.6563 177.875,26.7813 177.1094,26.7813 C175.0625,26.7813 173.7656,25.6875 173.7656,23.9844 L173.7656,22.8906 C173.7656,21.1094 175.0156,19.7969 176.75,19.7969 C177.3281,19.7969 177.9375,19.9531 178.4063,20.2031 C178.8906,20.4844 179.0625,20.7031 179.1563,21.1094 C179.2188,21.5156 179.25,21.6406 179.3906,21.7656 C179.5313,21.9063 179.7656,22.0156 179.9844,22.0156 C180.25,22.0156 180.5156,21.875 180.6875,21.6563 C180.7969,21.5 180.8281,21.3125 180.8281,20.8906 L180.8281,19.4688 C180.8281,19.0313 180.8125,18.9063 180.7188,18.75 C180.5625,18.4844 180.2813,18.3438 179.9844,18.3438 C179.6875,18.3438 179.4844,18.4375 179.2656,18.75 L179.0938,18.6719 Z " fill="#000000"/><text fill="#000000" font-family="sans-serif" font-size="14" lengthAdjust="spacing" textLength="34" x="197.25" y="27.8467">Auto</text><line style="stroke:#181818;stroke-width:0.5;" x1="52.5" x2="343.5" y1="39" y2="39"/><rect fill="none" height="6" style="stroke:#C82930;stroke-width:1.0;" width="6" x="59.5" y="49.6484"/><text fill="#000000" font-family="sans-serif" font-size="14" lengthAdjust="spacing" textLength="100" x="71.5" y="55.9951">string marque</text><rect fill="none" height="6" style="stroke:#C82930;stroke-width:1.0;" width="6" x="59.5" y="65.9453"/><text fill="#000000" font-family="sans-serif" font-size="14" lengthAdjust="spacing" textLength="115" x="71.5" y="72.292">Moteur* moteur</text><line style="stroke:#181818;stroke-width:0.5;" x1="52.5" x2="343.5" y1="79.5938" y2="79.5938"/><ellipse cx="62.5" cy="93.2422" fill="#84BE84" rx="3" ry="3" style="stroke:#038048;stroke-width:1.0;"/><text fill="#000000" font-family="sans-serif" font-size="14" lengthAdjust="spacing" textLength="267" x="71.5" y="96.5889">Auto(string marque, Moteur* moteur)</text></g><!--reverse link Auto to Moteur--><g id="link_Auto_Moteur"><path codeLine="18" d="M239.676,114.847 C251.425,131.295 263.93,148.8018 274.697,163.8755 " fill="none" id="Auto-backto-Moteur" style="stroke:#181818;stroke-width:1.0;"/><polygon fill="#181818" points="232.09,104.227,232.3223,111.4344,239.0646,113.992,238.8323,106.7846,232.09,104.227" style="stroke:#181818;stroke-width:1.0;"/></g><!--reverse link Auto to Roue--><g id="link_Auto_Roue"><path codeLine="19" d="M156.324,114.847 C144.575,131.295 132.07,148.8018 121.303,163.8755 " fill="none" id="Auto-backto-Roue" style="stroke:#181818;stroke-width:1.0;"/><polygon fill="#181818" points="163.91,104.227,157.1677,106.7846,156.9354,113.992,163.6777,111.4344,163.91,104.227" style="stroke:#181818;stroke-width:1.0;"/></g><!--SRC=[Iyv9B2vM2CelJLMevbBGLIWkAShCIrV8JImgB4tbKj06IscWY6forN9n9OFr-UQNf9OMeMZCJqdD0Uc3I6aW2oDfT2mjoSTcdovKdnPG1uZc0Xa5Kepg11qqPM2J8K8AkgK5kbfWFLnWRo7u0000]--></g></svg>
